<svg width="175" height="175" viewBox="0 0 175 175" fill="none" xmlns="http://www.w3.org/2000/svg">
<circle cx="87.5" cy="87.5" r="87.5" fill="#397F99"/>
<path d="M83.8886 66.7336H91.0166C92.7446 66.7336 93.6086 67.6216 93.6086 69.3976L95.6966 116.414H89.3606L87.5606 71.9896H86.0486L74.9606 108.638C74.5766 110.078 73.6646 110.798 72.2246 110.798H66.5366C65.0486 110.798 64.0886 110.078 63.6566 108.638L52.5686 71.9896H51.1286L49.4006 116.414H43.0646L45.0086 69.3976C45.1046 67.6216 45.9926 66.7336 47.6726 66.7336H54.8726C56.2166 66.7336 57.1046 67.4536 57.5366 68.8936L66.8246 99.2056C67.1126 100.07 67.4726 101.366 67.9046 103.094C68.3846 104.774 68.6486 105.71 68.6966 105.902H69.9926C70.1366 105.374 70.4006 104.342 70.7846 102.806C71.2166 101.222 71.5766 99.9736 71.8646 99.0616L81.1526 68.8936C81.5366 67.4536 82.4486 66.7336 83.8886 66.7336Z" fill="white"/>
<path d="M137.686 66.7336L122.638 114.614C122.206 115.814 121.39 116.414 120.19 116.414H113.782C112.486 116.414 111.67 115.814 111.334 114.614L96.2857 66.7336H102.838L114.574 106.118C115.246 108.518 115.726 110.318 116.014 111.518H117.958C118.438 109.55 118.942 107.726 119.47 106.046L131.134 66.7336H137.686Z" fill="white"/>
</svg>
